<?xml version="1.0" encoding="utf-8"?>
<!-- Generator: Adobe Illustrator 22.1.0, SVG Export Plug-In . SVG Version: 6.00 Build 0)  -->
<svg version="1.1" id="Layer_1" xmlns="http://www.w3.org/2000/svg" xmlns:xlink="http://www.w3.org/1999/xlink" x="0px" y="0px"
	 viewBox="0 0 1366 768" style="enable-background:new 0 0 1366 768;" xml:space="preserve">
<style type="text/css">
	.st0{fill:#2D2D31;}
	.st1{fill:url(#SVGID_1_);}
	.st2{fill:#FFFFFF;}
	.st3{display:none;fill:#FFFFFF;}
</style>
<rect class="st0" width="1366" height="768"/>
<linearGradient id="SVGID_1_" gradientUnits="userSpaceOnUse" x1="928.2548" y1="558.5508" x2="183.5383" y2="28.5272" gradientTransform="matrix(1 0 0 -1 0 768)">
	<stop  offset="0" style="stop-color:#00FFFF"/>
	<stop  offset="1" style="stop-color:#7FFFB5"/>
</linearGradient>
<path class="st1" d="M-0.5-0.5l703,1c0,0,31,152,313,150s351,90,351,90v528H-0.5V-0.5z"/>
<path class="st2" d="M199.6,810"/>
<path class="st3" d="M-197.6,321.5"/>
<path class="st3" d="M1530.6,729.8"/>
<path class="st0" d="M-323.2,784.5c0,0,45.1-13.9,91.8-25.9C-1,699.6,213,693.8,213,693.8c282.5-7.7,276.8,69.9,526,54.3
	c173-10.9,201-53.5,357.9-49.2c173.4,4.7,308,49,386.3,81.2c43.2,11.4,105.3,22,178.8,15.2c26.1-2.4,49.8-6.7,70.7-11.8
	c0.2,19.6,0.3,39.1,0.5,58.7l-2187.7-11.7C-410.7,815-367,799.8-323.2,784.5z"/>
<path class="st2" d="M295.2,874.8"/>
</svg>
